<svg id="Layer_1" data-name="Layer 1" xmlns="http://www.w3.org/2000/svg" viewBox="0 0 1255.55 994">
  <defs>
    <style>
      .cls-1 {
        fill: #fdd080;
      }

      .cls-2 {
        fill: #fed38e;
      }

      .cls-3 {
        fill: #ffdaae;
      }

      .cls-4 {
        fill: #ec5a00;
      }

      .cls-5 {
        fill: #ff9d00;
      }

      .cls-6 {
        fill: #ff8200;
      }

      .cls-7 {
        fill: #fbac43;
        fill-rule: evenodd;
      }

      .cls-8 {
        fill: #ffb464;
      }

      .cls-9 {
        fill: #fcb87a;
      }

      .cls-10 {
        fill: #fff;
      }

      .cls-11 {
        fill: #e6e6e6;
      }
    </style>
  </defs>
  <title>Background</title>
  <g>
    <rect class="cls-1" x="1.55" width="1239.4" height="991.52"/>
    <circle class="cls-2" cx="610.72" cy="548.44" r="422.02"/>
    <circle class="cls-3" cx="610.72" cy="548.44" r="276.03"/>
    <path class="cls-4" d="M1233,637.33c-103.92,0-147-138.29-236.09-109.57-65.53,21.11-70.36-60.12-141.48-60.12-77.55,0-70.49,85.65-143.37,110.28-39.34,13.28-66.28-52.63-111.05-52.63s-71.7,65.91-111,52.63c-72.89-24.63-65.82-110.28-143.37-110.28-71.13,0-72.24,60.12-141.48,60.12-126.13,0,28,72.45-169.17,109.57Z" transform="translate(22.51 -4)"/>
    <path class="cls-5" d="M646.53,668.32c-18.81-2.11-89.08-83.84-143.12-66.43-39.73,12.8-42.65-36.44-85.77-36.44-47,0-42.73,51.92-86.92,66.85-23.84,8.05-40.17-31.9-67.31-31.9s-43.47,40-67.32,31.9c-44.18-14.93-70.3-66.85-116.83-66.85-40.49,0-38.34,33.46-81.63,33.46-11.31,0-13.32,1.46-14.21,3.43a32.32,32.32,0,0,0-2.76,9.23c-2.21,18.76-.44,37.68-1.62,56.75Z" transform="translate(22.51 -4)"/>
    <path class="cls-6" d="M1206.16,604.68A109.07,109.07,0,0,1,1193.42,592c-31.63-36.77,13.8,10.85-38.19,10.85-46.83,0-47.85-40.88-96.22-40.88-52.74,0-47.94,58.25-97.5,75-26.75,9-45.07-35.8-75.52-35.8S837.23,646,810.47,637c-49.56-16.75-44.76-75-97.48-75-48.39,0-49.14,40.88-96.22,40.88-61.78,0-148,68.21-160.56,74.52h756Q1210.35,640.72,1206.16,604.68Z" transform="translate(22.51 -4)"/>
    <path class="cls-7" d="M-20.88,642.24Q-22.33,818.66-22.51,998H1219.68q-.14-179.37-1.64-355.76Z" transform="translate(22.51 -4)"/>
    <path class="cls-8" d="M1201.09,390.69c-49.46-29,15.16-40.32-35.5-21.52-16.81,6.24-29.9-18-50.08-18s-32.33,22.49-50.07,18c-32.88-8.4-29.69-37.64-64.66-37.64-32.08,0-32.59,20.52-63.81,20.52-56.88,0-73.12,4.05-106.46,37.4Z" transform="translate(22.51 -4)"/>
    <path class="cls-9" d="M450,413c-30.69-18-48.27-24.25-79.71-12.58-10.43,3.86-18.55-11.15-31.08-11.15s-20.06,14-31.07,11.15c-20.4-5.22-18.43-23.36-40.12-23.36-19.91,0-20.23,12.73-39.6,12.73-35.3,0-45.37,2.51-66.07,23.21Z" transform="translate(22.51 -4)"/>
  </g>
  <path class="cls-10" d="M-21,4-22.2,998H1219.68L1218.44,4ZM-22.2,192.39H769.16c152.35,0,277,124.65,277,277h0c0,152.35-124.65,277-277,277H-22.2" transform="translate(22.51 -4)"/>
  <rect class="cls-11" x="6.51" y="873.78" width="1229.49" height="120.22"/>
</svg>
