<?xml version="1.0" encoding="utf-8"?>
<?xml-stylesheet href="../style.css" type="text/css"?>
<svg id="Button" xmlns="http://www.w3.org/2000/svg" viewBox="0 0 200 75">
  <title>Buttons</title>
  <g id="back-rect">
    <rect class="dark-purple" x="2" y="9" width="182" height="61"/>
    <path class="darker-purple" d="M186,12.6v57H8v-57H186m4-4H4v65H190V8.6Z" transform="translate(-4 -1.6)"/>
  </g>
  <g id="front-rect">
    <rect class="light-purple" x="9" y="2" width="182" height="61"/>
    <path class="darker-purple" d="M193,5.6v57H15V5.6H193m4-4H11v65H197V1.6Z" transform="translate(-4 -1.6)"/>
  </g>
  <g id="Neutral">
    <g>
      <path class="white" d="M40,21.82h5.39V46H40L28.46,30.83V46H23.07V21.82h5.05L40,37.36Z" transform="translate(-4 -1.6)"/>
      <path class="white" d="M68.72,21.82v4.8h-12v5H67.51v4.6H56.69v5H69.1V46H51.3V21.82Z" transform="translate(-4 -1.6)"/>
      <path class="white" d="M80.29,39.73a4.42,4.42,0,0,0,3.63,1.68,4.36,4.36,0,0,0,3.61-1.68,7.15,7.15,0,0,0,1.33-4.58V21.82h5.39V35.33q0,5.25-2.9,8.06a11.21,11.21,0,0,1-14.88,0c-1.94-1.89-2.92-4.58-2.92-8.05V21.82h5.39V35.15A7.1,7.1,0,0,0,80.29,39.73Z" transform="translate(-4 -1.6)"/>
      <path class="white" d="M110.07,26.48V46h-5.39V26.48H97.84V21.82h19.07v4.66Z" transform="translate(-4 -1.6)"/>
      <path class="white" d="M140.44,29.83q0,5.81-4.59,7.5L142,46h-6.63L130,38.26h-3.73V46h-5.39V21.82H130q5.63,0,8,1.9T140.44,29.83ZM134,32.7a3.64,3.64,0,0,0,1-2.85,3.07,3.07,0,0,0-1-2.68,6.66,6.66,0,0,0-3.62-.72h-4V33.6h3.94C132,33.6,133.28,33.3,134,32.7Z" transform="translate(-4 -1.6)"/>
      <path class="white" d="M163.18,46l-2.25-5.22H150.81L148.56,46h-5.73l10.43-24.15h5.22L168.91,46Zm-7.29-17-3,7h6Z" transform="translate(-4 -1.6)"/>
      <path class="white" d="M171.71,46V21.82h5.39V41.16h10.3V46Z" transform="translate(-4 -1.6)"/>
    </g>
  </g>
  <g id="Happy">
    <g>
      <path class="white" d="M57.68,22.24h5.39V46.39H57.68v-9.5h-9.6v9.5H42.69V22.24h5.39V32.33h9.6Z" transform="translate(-4 -1.6)"/>
      <path class="white" d="M86.22,46.39,84,41.18H73.85L71.6,46.39H65.87L76.3,22.24h5.22L92,46.39Zm-7.29-17-3,7h6Z" transform="translate(-4 -1.6)"/>
      <path class="white" d="M111.39,24.4q2.53,2.16,2.54,6.63t-2.61,6.55q-2.61,2.07-8,2.07h-3.22v6.74H94.75V22.24h8.54Q108.85,22.24,111.39,24.4Zm-4,9.5a4.6,4.6,0,0,0,1-3.18,3.37,3.37,0,0,0-1.26-3,6.91,6.91,0,0,0-3.92-.88h-3.08V35h3.63C105.57,35,106.79,34.63,107.43,33.9Z" transform="translate(-4 -1.6)"/>
      <path class="white" d="M134.78,24.4q2.53,2.16,2.54,6.63t-2.61,6.55q-2.61,2.07-8,2.07h-3.21v6.74h-5.4V22.24h8.54Q132.24,22.24,134.78,24.4Zm-4,9.5a4.6,4.6,0,0,0,1-3.18,3.37,3.37,0,0,0-1.26-3,6.91,6.91,0,0,0-3.92-.88h-3.07V35h3.62C129,35,130.18,34.63,130.82,33.9Z" transform="translate(-4 -1.6)"/>
      <path class="white" d="M151.76,46.39h-5.39V36.86L138,22.24h5.84l5.22,9,5.22-9h5.83l-8.36,14.62Z" transform="translate(-4 -1.6)"/>
    </g>
  </g>
  <g id="Sad">
    <g>
      <path class="white" d="M77.33,27.06a2.1,2.1,0,0,0-.77,1.69,1.9,1.9,0,0,0,1,1.68A17.63,17.63,0,0,0,81.9,31.9a12.22,12.22,0,0,1,5.33,2.54,6.25,6.25,0,0,1,1.9,4.94,6.54,6.54,0,0,1-2.43,5.27,9.76,9.76,0,0,1-6.41,2A14.83,14.83,0,0,1,70,42.42l3.21-3.94q3.9,3.42,7.22,3.42a3.75,3.75,0,0,0,2.33-.64,2,2,0,0,0,.85-1.73,2,2,0,0,0-.9-1.72,11.61,11.61,0,0,0-3.56-1.3A15.47,15.47,0,0,1,73,33.9a6.16,6.16,0,0,1-2-5,6.29,6.29,0,0,1,2.47-5.31,10,10,0,0,1,6.17-1.86,14.66,14.66,0,0,1,4.84.83,12.71,12.71,0,0,1,4.21,2.35L86,28.81a10.67,10.67,0,0,0-6.5-2.39A3.24,3.24,0,0,0,77.33,27.06Z" transform="translate(-4 -1.6)"/>
      <path class="white" d="M110.66,46.39l-2.25-5.21H98.29L96,46.39H90.31l10.43-24.15H106l10.43,24.15Zm-7.29-17-3,7h6Z" transform="translate(-4 -1.6)"/>
      <path class="white" d="M137.64,25.4q3.47,3.17,3.46,8.8a11.86,11.86,0,0,1-3.37,8.91q-3.37,3.28-10.28,3.28h-8.26V22.24h8.54Q134.18,22.24,137.64,25.4Zm-3.95,14.36a7.11,7.11,0,0,0,2-5.43,7.26,7.26,0,0,0-2-5.47q-2-1.92-6.1-1.92h-3V41.62H128A8,8,0,0,0,133.69,39.76Z" transform="translate(-4 -1.6)"/>
    </g>
  </g>
  <g id="Laugh">
    <g>
      <path class="white" d="M44.69,46.39V22.24h5.39V41.59H60.37v4.8Z" transform="translate(-4 -1.6)"/>
      <path class="white" d="M81.52,46.39l-2.25-5.21H69.15L66.9,46.39H61.17L71.6,22.24h5.22L87.25,46.39Zm-7.29-17-3,7h6Z" transform="translate(-4 -1.6)"/>
      <path class="white" d="M95.79,40.16a4.76,4.76,0,0,0,7.24,0,7.23,7.23,0,0,0,1.33-4.58V22.24h5.39V35.75q0,5.25-2.91,8.07A11.21,11.21,0,0,1,92,43.8Q89,41,89.05,35.75V22.24h5.39V35.58A7.12,7.12,0,0,0,95.79,40.16Z" transform="translate(-4 -1.6)"/>
      <path class="white" d="M131,34.09h5.42v8.57q-3.58,4-9.95,4a12.3,12.3,0,0,1-8.93-3.53A11.89,11.89,0,0,1,114,34.25a12.05,12.05,0,0,1,3.68-9,12.26,12.26,0,0,1,8.88-3.59,13.1,13.1,0,0,1,9,3.42l-2.79,4a10.93,10.93,0,0,0-3-1.95,8,8,0,0,0-3-.54,7.09,7.09,0,0,0-5.18,2.09,7.45,7.45,0,0,0-2.11,5.51,7.51,7.51,0,0,0,2,5.48,6.55,6.55,0,0,0,4.82,2.06A9.3,9.3,0,0,0,131,40.73Z" transform="translate(-4 -1.6)"/>
      <path class="white" d="M156.25,22.24h5.39V46.39h-5.39v-9.5h-9.6v9.5h-5.39V22.24h5.39V32.33h9.6Z" transform="translate(-4 -1.6)"/>
    </g>
  </g>
  <g id="Angry">
    <g>
      <path class="white" d="M59.89,46.39l-2.24-5.21H47.52l-2.24,5.21H39.54L50,22.24h5.21L65.63,46.39Zm-7.29-17-3,7h6Z" transform="translate(-4 -1.6)"/>
      <path class="white" d="M85.32,22.24h5.39V46.39H85.32L73.82,31.26V46.39H68.43V22.24h5L85.32,37.79Z" transform="translate(-4 -1.6)"/>
      <path class="white" d="M112.34,34.09h5.43v8.57q-3.6,4-10,4a12.3,12.3,0,0,1-8.93-3.53,11.92,11.92,0,0,1-3.61-8.89,12.05,12.05,0,0,1,3.68-9,12.27,12.27,0,0,1,8.88-3.59,13.15,13.15,0,0,1,9,3.42l-2.8,4a10.78,10.78,0,0,0-3-1.95,8,8,0,0,0-3-.54,7.11,7.11,0,0,0-5.18,2.09,7.45,7.45,0,0,0-2.11,5.51,7.48,7.48,0,0,0,2,5.48,6.51,6.51,0,0,0,4.82,2.06,9.29,9.29,0,0,0,4.66-1.07Z" transform="translate(-4 -1.6)"/>
      <path class="white" d="M142.16,30.26q0,5.81-4.6,7.49l6.12,8.64H137l-5.35-7.7H128v7.7h-5.39V22.24h9.15q5.64,0,8,1.9T142.16,30.26Zm-6.5,2.86a3.62,3.62,0,0,0,1-2.85,3,3,0,0,0-1-2.67,6.57,6.57,0,0,0-3.63-.73h-4V34h3.94C133.74,34,135,33.72,135.66,33.12Z" transform="translate(-4 -1.6)"/>
      <path class="white" d="M157.46,46.39h-5.39V36.86l-8.36-14.62h5.84l5.22,9,5.22-9h5.84l-8.37,14.62Z" transform="translate(-4 -1.6)"/>
    </g>
  </g>
</svg>
